<?xml version="1.0" standalone="no"?>
<!DOCTYPE svg PUBLIC "-//W3C//DTD SVG 20010904//EN"
 "http://www.w3.org/TR/2001/REC-SVG-20010904/DTD/svg10.dtd">
<svg version="1.0" xmlns="http://www.w3.org/2000/svg"
 width="1500.000000pt" height="1500.000000pt" viewBox="0 0 1500.000000 1500.000000"
 preserveAspectRatio="xMidYMid meet">
<metadata>
Created by potrace 1.11, written by Peter Selinger 2001-2013
</metadata>
<g transform="translate(0.000000,1500.000000) scale(0.100000,-0.100000)"
fill="#000000" stroke="none">
<path d="M6953 14674 c-364 -79 -657 -313 -749 -599 -21 -63 -28 -108 -31
-207 l-6 -126 -56 46 c-126 103 -320 212 -467 262 -71 25 -86 25 -109 0 -27
-30 -12 -62 52 -111 219 -165 348 -330 369 -471 l6 -43 -31 41 c-65 87 -191
149 -324 160 -189 16 -425 -106 -631 -328 -120 -129 -206 -283 -206 -370 0
-55 82 -64 110 -12 8 14 39 48 68 75 41 38 70 54 123 70 39 12 72 19 74 17 3
-3 -30 -32 -73 -66 -280 -220 -503 -540 -609 -871 -42 -129 -41 -131 26 -168
2 -1 -22 -69 -52 -150 -94 -250 -165 -527 -203 -788 -12 -84 -18 -188 -18
-345 -1 -251 15 -405 45 -444 17 -21 19 -52 23 -352 2 -181 7 -338 10 -349 6
-17 -2 -24 -48 -43 -106 -46 -211 -167 -269 -309 -13 -33 -36 -104 -50 -159
-95 -361 -71 -576 87 -798 101 -141 285 -266 438 -298 l56 -12 7 -100 c41
-616 216 -1042 675 -1651 165 -218 298 -376 330 -391 14 -7 44 -18 68 -25 33
-10 41 -16 36 -28 -4 -9 -9 -39 -11 -67 -12 -122 90 -238 243 -275 68 -16 101
-35 139 -76 l33 -36 -47 -58 c-116 -145 -244 -432 -356 -804 -99 -327 -118
-417 -119 -560 -1 -134 14 -199 67 -300 64 -120 169 -198 314 -232 l71 -17 -1
-142 c-2 -165 6 -186 84 -215 l44 -17 5 -60 c5 -66 7 -70 36 -75 27 -4 27 -10
1 -69 -59 -133 -107 -319 -237 -908 -39 -179 -75 -334 -79 -346 -5 -12 -25
-25 -48 -32 -50 -15 -142 -75 -168 -110 -13 -18 -20 -43 -20 -73 0 -33 6 -54
20 -69 26 -29 288 -160 319 -160 14 0 28 -5 32 -11 12 -19 64 -1 130 46 34 25
65 54 69 65 3 11 9 19 13 19 27 -4 43 10 85 74 26 40 47 76 47 79 0 4 50 78
112 165 61 87 217 313 346 503 129 190 251 365 270 389 l35 43 86 -6 c159 -12
181 -16 181 -36 0 -9 36 -163 79 -341 44 -178 112 -467 151 -643 38 -175 77
-330 84 -345 20 -37 28 -61 31 -98 1 -18 19 -59 40 -90 88 -133 218 -223 322
-223 108 0 153 45 153 152 0 89 -42 241 -77 281 -15 15 -15 19 -1 35 9 9 35
89 58 177 115 442 322 1149 350 1201 11 19 20 46 20 59 0 19 5 25 23 25 35 1
102 35 125 65 24 30 29 83 11 116 -9 17 -2 27 43 68 142 130 160 252 114 791
-13 151 -23 276 -21 278 1 1 21 -36 44 -83 102 -206 233 -360 356 -420 39 -19
76 -35 82 -35 6 0 13 -8 16 -19 7 -28 135 -121 166 -121 34 0 51 -17 51 -50 0
-43 27 -121 47 -136 46 -34 118 -1 160 75 25 44 32 50 77 60 78 18 190 76 247
129 46 43 52 53 56 98 5 46 3 53 -28 86 -26 28 -47 38 -92 48 -32 6 -65 9 -74
5 -9 -3 -36 -3 -60 1 -40 6 -48 12 -85 67 -23 34 -115 212 -205 397 -91 184
-225 460 -300 612 l-136 277 26 21 c14 12 29 35 32 53 5 27 17 38 68 66 75 42
150 111 185 171 24 39 27 56 27 130 0 61 -5 94 -18 119 -9 19 -16 35 -15 35
121 48 353 221 653 486 415 367 623 693 766 1199 16 57 30 106 32 108 2 1 29
-2 60 -8 246 -50 537 206 656 576 43 134 54 224 48 382 -7 198 -47 319 -142
436 l-44 55 31 48 c156 246 288 566 352 856 55 247 60 302 60 628 0 170 -5
331 -10 363 l-11 57 27 0 c44 0 64 32 68 111 14 233 -78 625 -204 877 l-52
104 21 37 c19 31 23 55 26 164 7 268 -74 550 -232 802 -187 301 -507 579 -888
772 -61 30 -78 44 -88 71 -18 46 -116 167 -192 235 -156 141 -440 299 -674
376 -200 65 -321 85 -522 86 -94 0 -166 3 -160 6 30 16 180 49 257 58 68 7 88
14 102 31 21 26 22 40 7 74 -17 37 -163 98 -329 137 -123 29 -384 37 -507 15
-127 -22 -261 -67 -376 -125 -53 -27 -98 -47 -100 -45 -2 3 -49 14 -103 25
-143 29 -444 37 -579 15 -185 -31 -385 -111 -512 -207 -29 -21 -54 -39 -57
-39 -9 0 93 219 122 263 18 25 52 62 76 82 55 45 62 69 31 101 -27 27 -27 27
-112 8z m4035 -2086 c5 -7 36 -71 68 -143 49 -109 58 -139 58 -189 1 -80 -17
-92 -76 -49 -24 17 -71 44 -105 61 -34 17 -90 49 -124 71 -35 22 -64 39 -66
38 -1 -2 6 -32 16 -67 11 -36 26 -96 34 -134 32 -139 -20 -159 -161 -60 -172
122 -222 155 -222 146 0 -28 24 -138 46 -204 27 -87 31 -153 10 -161 -17 -7
-77 24 -157 83 -85 62 -349 321 -349 343 0 28 14 20 86 -53 124 -126 373 -328
387 -314 3 3 -6 38 -19 77 -26 76 -54 217 -54 272 0 62 9 58 301 -148 70 -50
89 -56 89 -32 0 24 -38 177 -59 239 -43 122 -23 130 107 44 106 -71 272 -161
272 -149 0 41 -91 235 -115 244 -28 11 -14 97 16 97 4 0 11 -6 17 -12z m-4174
-293 c-22 -54 -18 -102 10 -121 23 -14 28 -14 70 4 25 11 72 36 106 56 l61 36
56 -60 c146 -158 375 -283 593 -324 109 -21 308 -21 357 -1 l37 16 66 -45 c36
-25 116 -90 179 -146 75 -66 128 -104 154 -112 38 -12 41 -11 63 18 38 47 47
88 41 193 -2 53 -8 104 -12 113 -5 14 11 9 71 -21 142 -71 313 -111 469 -111
72 0 97 4 109 16 36 36 13 75 -79 137 -46 31 -131 114 -124 122 9 8 139 -58
273 -139 257 -155 423 -286 686 -539 102 -99 189 -185 193 -193 24 -43 93 17
81 70 -6 28 -5 30 11 16 43 -35 209 -239 270 -330 80 -122 181 -330 225 -465
18 -55 59 -178 92 -274 l59 -174 -35 -29 c-41 -33 -61 -85 -51 -134 3 -20 22
-70 42 -112 l35 -77 -6 -455 c-13 -958 -95 -1699 -236 -2135 -171 -529 -415
-831 -1082 -1335 -160 -121 -221 -159 -267 -166 -14 -2 -334 -6 -711 -10 -881
-9 -1299 8 -1835 71 -364 44 -903 142 -936 171 -8 8 -30 14 -48 14 -17 0 -60
7 -95 16 l-64 16 -164 206 c-296 372 -418 550 -536 780 -216 420 -282 751
-269 1351 12 562 73 960 312 2026 20 88 40 187 46 220 7 38 28 89 56 138 24
43 41 81 39 86 -3 5 18 39 46 77 123 162 158 217 158 245 0 33 -29 54 -63 43
-13 -4 24 40 90 107 121 123 186 201 197 235 9 30 -19 57 -55 52 -27 -4 -27
-4 19 55 103 131 344 352 466 426 34 20 84 38 135 49 44 9 81 21 81 25 0 5
-11 22 -25 39 -13 16 -30 47 -37 70 -16 54 1 83 67 117 44 23 61 26 150 25 67
0 120 -7 160 -19 62 -19 135 -20 170 -3 11 6 43 33 72 59 62 58 77 62 57 14z
m-1948 -535 c-30 -185 -29 -297 2 -308 7 -2 19 13 28 34 9 20 29 53 45 73 16
20 49 64 74 99 66 91 75 85 97 -63 9 -66 17 -121 17 -122 1 -2 10 -3 22 -3 16
0 29 18 60 85 37 82 54 100 65 72 7 -19 -50 -142 -80 -172 -31 -31 -81 -34
-96 -5 -6 11 -15 54 -20 95 -14 112 -19 116 -63 53 -68 -96 -82 -117 -102
-150 -26 -43 -56 -47 -84 -12 -18 23 -21 40 -21 123 0 84 21 260 36 300 4 13
7 13 19 0 12 -12 12 -26 1 -99z m-383 -2346 c28 -9 60 -31 82 -55 56 -62 60
-77 45 -164 l-13 -75 -56 53 c-84 80 -151 109 -165 71 -4 -10 18 -43 64 -97
38 -45 70 -85 70 -88 0 -3 -13 -4 -30 -1 -86 12 -176 -51 -226 -160 -26 -56
-29 -74 -29 -163 0 -89 3 -107 28 -160 15 -33 45 -77 65 -98 45 -47 120 -87
162 -87 l30 0 0 -155 c0 -123 -3 -155 -13 -155 -26 0 -129 40 -180 69 -125 71
-237 208 -284 344 -47 134 -42 286 18 516 61 238 157 369 299 407 61 17 79 17
133 -2z m58 -505 c19 -28 19 -31 5 -166 -9 -76 -17 -156 -18 -178 -3 -36 -5
-40 -28 -37 -79 10 -144 102 -143 201 1 107 35 180 96 206 39 16 63 9 88 -26z
m6778 -262 c131 -61 210 -233 211 -458 1 -390 -273 -806 -518 -787 -29 3 -57
9 -63 15 -8 8 -7 36 3 94 l13 84 50 6 c95 12 200 86 243 172 47 94 50 189 11
337 -40 151 -100 207 -189 176 -77 -27 -40 6 72 64 88 45 105 72 67 103 -27
22 -70 17 -131 -14 l-38 -19 0 88 c0 79 2 91 23 109 70 64 153 74 246 30z
m-163 -562 c29 -140 2 -248 -77 -304 -23 -17 -53 -31 -67 -31 -23 0 -24 2 -19
43 3 23 11 98 17 167 17 179 20 191 60 218 32 22 35 22 52 5 9 -10 25 -54 34
-98z m-5215 -2425 c344 -88 639 -139 1045 -181 149 -15 203 -24 223 -38 14
-10 68 -41 118 -69 68 -38 103 -52 132 -52 24 0 41 -5 44 -14 3 -8 15 -19 25
-25 16 -8 30 -3 74 28 29 22 83 55 118 74 l65 36 705 5 c388 3 744 8 792 12
l88 7 20 -44 c23 -53 26 -129 5 -173 -24 -51 -93 -112 -180 -158 -68 -36 -82
-49 -91 -78 -7 -19 -16 -35 -20 -35 -8 0 -73 111 -74 125 0 3 15 10 33 15 26
8 33 16 35 41 5 53 -13 57 -129 29 -155 -38 -414 -81 -594 -100 -231 -23 -222
-21 -228 -51 -3 -16 1 -28 10 -31 42 -16 565 39 761 80 35 8 64 11 66 8 2 -3
38 -87 79 -186 121 -290 580 -1274 634 -1357 17 -26 16 -27 -23 -70 -21 -24
-59 -71 -84 -106 -51 -70 -59 -72 -133 -25 l-41 26 36 18 c52 27 143 113 163
155 20 42 13 80 -15 89 -27 8 -54 -8 -79 -49 -25 -40 -78 -89 -122 -112 -28
-14 -35 -14 -63 -1 -17 9 -56 27 -88 41 -112 52 -247 228 -376 489 l-71 142
-10 122 -11 122 34 118 c47 165 60 233 47 246 -24 24 -53 -33 -136 -268 -29
-82 -33 -105 -25 -130 10 -29 47 -712 57 -1053 5 -145 3 -183 -12 -237 -31
-115 -108 -193 -213 -216 -59 -13 -112 -42 -112 -62 0 -6 12 -24 27 -39 21
-23 36 -28 72 -28 38 -1 43 -2 27 -11 -39 -23 -329 16 -628 86 -330 76 -554
107 -888 124 -184 10 -789 6 -827 -5 -18 -5 -23 0 -32 31 -7 25 -7 44 1 60 17
37 4 55 -40 55 -60 0 -66 13 -58 138 4 59 10 109 12 111 7 7 102 -18 154 -40
l50 -21 -35 -48 c-71 -97 -25 -111 59 -18 65 71 142 216 179 333 32 103 51
245 45 335 -6 80 -18 101 -44 79 -12 -10 -15 -23 -10 -56 3 -24 3 -43 0 -43
-4 0 -37 22 -73 49 -37 28 -91 62 -120 77 -41 22 -49 29 -37 36 21 12 21 150
2 298 -17 128 -40 190 -68 190 -20 0 -21 -4 -14 -117 3 -65 9 -173 12 -239 l7
-122 -71 6 c-87 6 -132 -2 -161 -29 -31 -29 -12 -51 38 -43 56 9 159 -12 230
-47 35 -17 99 -60 142 -95 43 -35 85 -64 94 -64 13 0 15 -7 10 -32 -20 -100
-50 -200 -82 -269 l-35 -78 -37 24 c-51 33 -126 52 -278 69 -158 19 -225 42
-293 103 -89 80 -130 187 -130 344 0 110 18 207 85 460 95 357 174 563 296
775 l71 123 64 -43 c135 -91 358 -134 522 -100 18 3 22 11 22 39 l0 35 -97 0
c-118 0 -201 19 -311 71 -70 34 -98 55 -180 138 -93 95 -100 100 -172 121
-126 37 -170 70 -191 142 -7 26 3 78 15 78 2 0 91 -22 197 -50z m1637 -226
l42 -5 -57 -43 -58 -44 -19 25 c-10 13 -40 35 -67 49 -27 13 -49 26 -49 28 0
4 154 -3 208 -10z m2338 -2013 c77 -9 114 -24 114 -46 0 -21 -103 -80 -183
-105 -112 -34 -126 -41 -133 -63 -9 -29 -58 -107 -66 -107 -5 0 -8 7 -8 15 0
8 -7 34 -15 59 l-15 44 56 79 c31 43 63 92 71 108 16 34 25 35 179 16z m-2736
-658 c0 -4 -10 -17 -22 -30 l-21 -23 24 -1 c13 0 50 -4 83 -8 58 -7 58 -7 68
21 13 38 39 38 32 0 l-6 -28 89 -12 c83 -11 189 -39 180 -48 -2 -2 -37 0 -78
5 -41 5 -102 12 -136 15 l-63 6 -8 -33 c-5 -17 -8 -33 -7 -34 0 -1 49 -9 107
-17 107 -15 213 -46 232 -67 8 -9 8 -10 -1 -5 -13 7 -345 58 -349 53 -1 -1 -9
-15 -18 -32 l-17 -30 5 33 c3 17 2 32 -2 32 -4 1 -26 5 -49 9 -40 8 -43 7 -43
-15 0 -28 -10 -54 -20 -54 -5 0 -6 17 -3 39 5 38 5 38 -33 44 -22 4 -61 7 -89
8 l-50 1 55 10 c30 5 70 7 88 4 39 -6 44 15 10 51 -20 21 -29 23 -134 23 -103
0 -141 8 -114 25 6 3 57 7 114 7 103 1 105 1 125 29 19 26 51 40 51 22z
m-1055 -1323 c10 -11 22 -17 27 -14 4 3 7 2 6 -3 -1 -4 6 -22 15 -40 20 -37
22 -59 5 -69 -6 -4 -8 -3 -5 3 7 11 -36 76 -72 107 -11 11 -21 23 -21 28 0 15
27 8 45 -12z m1765 -85 c0 -6 -135 -94 -156 -102 -10 -4 -13 3 -12 20 1 14 6
23 10 21 4 -3 26 7 48 21 59 37 110 56 110 40z m-2028 -26 c11 -6 34 -12 51
-12 28 -2 31 -6 32 -32 0 -26 3 -30 24 -27 22 2 40 -11 41 -30 0 -5 -9 -8 -21
-8 -12 0 -36 -7 -55 -16 -43 -20 -55 -12 -23 15 13 11 19 20 12 21 -6 0 -14 9
-18 20 -3 10 -19 26 -35 34 l-29 14 15 -23 c21 -32 2 -40 -26 -10 -13 14 -30
25 -37 25 -8 0 -11 5 -7 11 3 6 15 9 25 6 12 -3 19 0 19 9 0 17 5 17 32 3z
m2043 -253 c16 -18 29 -22 53 -18 26 3 32 1 32 -14 0 -11 3 -30 7 -43 5 -22 4
-23 -23 -19 -16 3 -37 9 -46 13 -22 9 -24 -13 -5 -39 11 -15 19 -16 49 -8 29
8 38 7 42 -4 4 -10 -4 -16 -24 -21 -46 -9 -49 -25 -4 -21 30 2 39 -1 39 -12 0
-9 -12 -16 -30 -18 -33 -4 -45 -16 -45 -49 0 -27 -18 -31 -26 -5 -3 9 -10 25
-15 34 -5 11 -5 19 1 23 18 11 11 23 -10 18 -23 -6 -27 12 -5 24 9 5 11 13 6
22 -7 11 -14 10 -37 -8 -41 -32 -56 -10 -19 29 20 21 24 30 13 30 -8 0 -23 9
-32 19 -15 16 -16 23 -5 43 13 24 38 47 53 48 5 0 19 -11 31 -24z"/>
<path d="M5798 10386 c-8 -7 -56 -23 -107 -35 -102 -24 -171 -49 -171 -61 0
-16 61 -32 97 -27 36 6 36 6 12 -10 -39 -26 -89 -76 -89 -89 0 -17 67 -7 154
23 38 12 76 23 85 23 8 0 73 -38 145 -83 72 -46 153 -96 179 -112 26 -15 46
-29 44 -31 -2 -2 -59 19 -128 46 -68 27 -132 50 -141 50 -26 0 -23 -37 5 -54
82 -54 1173 -536 1213 -536 26 0 54 20 54 39 0 27 -26 83 -47 103 -10 9 -26
27 -35 41 -11 16 -100 67 -235 137 -304 157 -451 240 -733 415 -301 187 -285
179 -302 161z m142 -142 c49 -36 90 -67 90 -69 0 -2 -39 15 -87 37 -90 41
-132 76 -110 90 7 4 13 8 14 8 2 0 43 -30 93 -66z"/>
<path d="M10050 10006 c-19 -7 -132 -52 -250 -99 -252 -100 -492 -186 -865
-308 -148 -49 -285 -98 -302 -109 -57 -34 -42 -43 67 -38 87 3 101 2 105 -13
9 -28 64 -27 262 7 210 35 403 81 532 126 150 53 383 160 388 178 3 9 21 25
40 34 l36 17 36 -35 c70 -68 123 -35 65 41 -14 18 -21 33 -16 33 5 0 29 -26
54 -57 25 -32 60 -66 77 -76 31 -18 31 -18 40 5 11 30 -8 78 -54 133 -24 29
-32 48 -28 63 6 24 1 27 -60 37 -38 6 -38 7 -22 25 40 44 -24 66 -105 36z m70
-80 c-8 -8 -28 -17 -45 -21 l-30 -6 35 20 c41 24 60 27 40 7z"/>
<path d="M6312 9590 c-276 -39 -515 -206 -631 -443 -27 -56 -55 -129 -62 -162
-8 -43 -21 -70 -43 -95 -43 -48 -89 -130 -119 -215 -114 -322 -7 -693 247
-854 156 -98 334 -118 366 -41 10 25 10 34 -4 55 -17 26 -20 27 -128 43 -91
14 -167 51 -233 113 -100 95 -157 215 -175 369 -16 139 17 318 83 450 41 83
274 227 468 289 76 24 347 81 384 81 4 0 -25 -16 -65 -37 -142 -71 -257 -225
-307 -413 -26 -95 -25 -324 1 -403 28 -85 81 -154 160 -208 83 -56 122 -69
213 -69 207 0 406 170 469 400 37 135 14 437 -42 560 -47 104 -136 167 -248
178 -50 5 -56 7 -31 12 83 18 227 -9 332 -62 54 -27 66 -30 88 -20 18 9 25 19
25 41 0 91 -188 181 -380 181 -283 0 -782 -155 -950 -294 -29 -25 -56 -44 -58
-42 -5 6 56 124 91 176 96 143 234 249 387 300 144 47 353 33 520 -36 47 -20
97 -41 113 -47 50 -21 89 32 53 72 -22 25 -158 87 -230 105 -75 20 -214 27
-294 16z m316 -676 c50 -57 17 -190 -59 -233 -35 -20 -44 -21 -70 -11 -39 17
-59 57 -59 122 0 67 24 116 70 140 44 24 87 17 118 -18z"/>
<path d="M9242 9390 c-116 -30 -264 -122 -270 -168 -5 -30 11 -28 76 13 189
116 436 118 611 6 63 -41 168 -151 221 -231 69 -107 191 -372 177 -386 -2 -2
-37 25 -78 61 -213 187 -474 329 -714 386 -113 26 -335 59 -406 59 -154 0
-293 -108 -221 -173 24 -21 56 -22 88 -1 37 25 145 28 293 9 167 -21 195 -30
119 -38 -78 -8 -159 -49 -234 -120 -100 -93 -136 -165 -174 -347 -20 -97 -21
-115 -10 -225 6 -66 18 -147 26 -180 61 -244 341 -357 562 -228 173 102 293
346 294 598 0 191 -64 338 -186 426 -50 37 -37 36 54 -1 166 -68 388 -201 510
-306 30 -26 65 -53 77 -61 29 -19 53 -126 60 -263 9 -180 -51 -403 -139 -521
-110 -147 -243 -189 -501 -157 -109 13 -130 8 -135 -35 -6 -50 103 -109 236
-127 327 -44 592 184 652 560 28 178 -4 451 -66 573 -12 22 -12 35 -3 67 17
58 0 124 -71 266 -83 167 -150 266 -249 364 -174 173 -384 236 -599 180z m-16
-714 c29 -29 34 -41 34 -81 0 -114 -107 -184 -180 -117 -34 31 -49 98 -31 144
13 34 86 88 119 88 14 0 38 -14 58 -34z"/>
<path d="M7532 7788 c-7 -7 -12 -24 -12 -38 0 -31 17 -50 45 -50 28 0 45 19
45 50 0 31 -17 50 -45 50 -12 0 -26 -5 -33 -12z"/>
<path d="M7836 7784 c-20 -19 -20 -34 0 -62 18 -27 45 -28 67 -4 46 51 -19
115 -67 66z"/>
<path d="M7290 7174 c-87 -5 -337 -33 -354 -40 -21 -8 -27 -33 -15 -56 10 -18
18 -20 78 -16 l66 5 47 -71 c56 -86 256 -306 397 -436 56 -52 108 -98 114
-102 7 -3 33 -4 59 -1 44 5 61 18 235 165 103 88 234 200 290 249 l102 88 48
-14 c91 -28 136 -13 136 44 0 44 -19 59 -104 81 -284 74 -487 101 -784 104
-137 2 -279 2 -315 0z m337 -105 c227 -18 521 -66 545 -88 4 -4 -25 -34 -65
-68 -39 -33 -152 -128 -251 -212 l-178 -151 -47 39 c-63 54 -325 321 -391 401
-30 36 -59 68 -64 72 -25 18 266 23 451 7z"/>
<path d="M6654 5450 c-28 -11 -54 -48 -54 -76 0 -25 36 -74 54 -74 8 0 16 17
19 41 6 48 19 64 43 55 13 -5 16 -16 12 -56 -3 -29 0 -57 6 -66 10 -14 15 -13
39 6 20 16 27 30 27 56 0 86 -74 143 -146 114z"/>
<path d="M8056 5335 c-25 -23 -30 -39 -26 -80 1 -19 25 -45 41 -45 4 0 10 20
13 45 6 39 10 45 31 45 30 0 37 -11 40 -68 2 -26 7 -45 12 -43 4 2 13 6 20 8
6 2 17 18 23 34 38 91 -81 172 -154 104z"/>
<path d="M9200 5329 c-119 -53 -305 -75 -462 -55 -68 9 -79 -6 -22 -30 95 -40
291 -37 420 6 66 22 154 73 154 90 0 16 -40 11 -90 -11z"/>
<path d="M7012 5240 c-62 -21 -146 -46 -187 -55 -71 -16 -75 -18 -75 -44 0
-15 3 -30 6 -33 14 -15 319 88 382 128 19 12 21 18 11 30 -14 17 -3 20 -137
-26z"/>
<path d="M7762 5254 c2 -15 10 -31 18 -35 102 -57 146 -88 210 -145 l74 -67 8
29 c6 24 3 34 -25 62 -47 49 -111 94 -202 141 -43 22 -81 41 -83 41 -2 0 -2
-12 0 -26z"/>
<path d="M6653 3960 c-13 -5 -23 -16 -23 -23 0 -36 26 -39 328 -48 163 -4 333
-11 377 -14 305 -24 449 -37 583 -52 116 -12 156 -13 164 -5 19 19 -1 31 -78
47 -203 42 -517 79 -809 95 -222 12 -512 12 -542 0z"/>
<path d="M8193 3788 c-17 -22 -44 -186 -50 -308 -7 -149 14 -277 62 -375 41
-84 49 -95 99 -129 40 -27 99 -35 111 -15 4 6 -17 32 -47 59 -31 28 -68 74
-87 109 -54 101 -64 174 -60 435 4 227 0 259 -28 224z"/>
<path d="M7174 2636 c9 -31 15 -34 56 -39 50 -6 56 -3 65 34 6 24 3 27 -32 32
-21 4 -52 7 -69 7 -31 0 -31 0 -20 -34z"/>
<path d="M7851 1046 c-8 -10 -9 -16 -1 -21 13 -8 30 3 30 21 0 18 -14 18 -29
0z"/>
<path d="M7950 1026 c0 -2 7 -6 15 -10 8 -3 15 -1 15 4 0 6 -7 10 -15 10 -8 0
-15 -2 -15 -4z"/>
</g>
</svg>
